PathFileType	4	(x/y/z)	S01_PSF_T17.trc
DataRate	CameraRate	NumFrames	NumMarkers	Units	OrigDataRate	OrigDataStartFrame	OrigNumFrames
240	240	10	51	mm	240	137	363
Frame#	Time	Sternum			R.Acromium			L.Acromium			Top.Head			R.ASIS			L.ASIS			R.PSIS			L.PSIS			R.Great.Tro			L.Great.Tro			R.Iliac.Crest			L.Iliac.Crest			V.Sacral			R.Thigh.Upper.Post			R.Thigh.Lower.Ant			R.Thigh.Lower.Post			R.Thigh.Upper.Ant			R.Knee.Lat			R.Knee.Med			R.Shank.Upper.Post			R.Shank.Lower.Ant			R.Shank.Lower.Post			R.Shank.Upper.Ant			R.Ankle.Lat			R.Ankle.Med			R.Heel.Upper			R.Heel.Med			R.Heel.Lat			R.Toe.Lat			R.Toe.Med			R.Toe.Tip			L.Thigh.Upper.Post			L.Thigh.Lower.Ant			L.Thigh.Lower.Post			L.Thigh.Upper.Ant			L.Knee.Lat			L.Knee.Med			L.Shank.Upper.Post			L.Shank.Lower.Ant			L.Shank.Lower.Post			L.Shank.Upper.Ant			L.Ankle.Lat			L.Ankle.Med			L.Heel.Upper			L.Heel.Med			L.Heel.Lat			L.Toe.Lat			L.Toe.Med			L.Toe.Tip			Cervical.Spine			Back			
		X1	Y1	Z1	X2	Y2	Z2	X3	Y3	Z3	X4	Y4	Z4	X5	Y5	Z5	X6	Y6	Z6	X7	Y7	Z7	X8	Y8	Z8	X9	Y9	Z9	X10	Y10	Z10	X11	Y11	Z11	X12	Y12	Z12	X13	Y13	Z13	X14	Y14	Z14	X15	Y15	Z15	X16	Y16	Z16	X17	Y17	Z17	X18	Y18	Z18	X19	Y19	Z19	X20	Y20	Z20	X21	Y21	Z21	X22	Y22	Z22	X23	Y23	Z23	X24	Y24	Z24	X25	Y25	Z25	X26	Y26	Z26	X27	Y27	Z27	X28	Y28	Z28	X29	Y29	Z29	X30	Y30	Z30	X31	Y31	Z31	X32	Y32	Z32	X33	Y33	Z33	X34	Y34	Z34	X35	Y35	Z35	X36	Y36	Z36	X37	Y37	Z37	X38	Y38	Z38	X39	Y39	Z39	X40	Y40	Z40	X41	Y41	Z41	X42	Y42	Z42	X43	Y43	Z43	X44	Y44	Z44	X45	Y45	Z45	X46	Y46	Z46	X47	Y47	Z47	X48	Y48	Z48	X49	Y49	Z49	X50	Y50	Z50	X51	Y51	Z51	

137	0.56667	-472.22	1286	287.01	-575.19	1523.3	487.17	-629.2	1558.1	162.72	-581.7	1857.1	336.62	-504.55	1035.5	441.01	-526.35	1035.4	175.88	-752.11	1062.3	371.32	-763.06	1057.8	269.35	-572.61	979.74	527.98	-633.64	975.48	108.1	-589.73	1127.1	516.87	-648.55	1113.6	115.97	-769.46	1023.4	320.05	-534.5	670.07	490.96	-455.77	613.36	454.15	-518.69	585.57	464.38	-468.63	699.98	480.97	-488.91	527.24	454.71	-494.36	536.26	312.07	-551.75	369.75	471.4	-498.04	286.02	422.8	-560.2	300.31	458.3	-492.62	356.77	443.22	-576.2	101.66	413.2	-547	110.39	319.83	-648.68	73.19	353.25	-631.32	44.609	324.39	-636.34	43.096	388.8	-444.9	36.021	446.78	-413.51	41.463	321.96	-350.38	59.839	376.89	-583.22	693.28	113.19	-489.77	646.49	80.45	-546.13	609.64	119.8	-531.17	731.68	79.2	-493.78	547.59	84.469	-425.35	539.13	224.97	-612	486.58	90.998	-625.21	376.89	105.45	-665.05	428.64	100.82	-574.1	433.48	92.129	-814.02	282.45	149.03	-766.4	260.4	236.13	-870.25	310.38	215.35	-873.98	284	248.87	-892.85	289.86	189.89	-783.58	128.87	109.81	-730.33	105.62	218.85	-695.32	70.628	152.85	-685.98	1595.9	341.94	-773.91	1285.6	347.96
138	0.57083	-467.43	1287.1	287.11	-569.72	1524.6	487.3	-624.4	1559.2	163.01	-576.25	1858.1	336.65	-499.67	1036.4	441.19	-521.53	1036.9	176.22	-747.19	1063.4	371.36	-758.05	1059.1	269.37	-567.93	980.41	528.01	-628.32	977.15	108.01	-584.58	1128.3	516.89	-643.6	1115.3	116.34	-764.46	1024.7	319.97	-532.31	670.44	491.02	-454.02	613.06	454.29	-517.19	585.8	464.47	-466.2	699.83	481	-487.9	527.23	454.84	-493.07	536.25	312.17	-551.28	369.89	471.48	-497.73	286.04	422.94	-559.9	300.48	458.36	-492.17	356.77	443.37	-576.15	101.72	413.21	-546.98	110.48	319.86	-648.65	73.276	353.26	-631.3	44.686	324.38	-636.32	43.169	388.81	-444.89	36.001	446.81	-413.51	41.465	322	-350.37	59.789	376.93	-575.39	694.93	112.57	-481.36	649.04	80.484	-537.75	611.61	119.25	-523.63	733.85	78.95	-484.78	549.87	84.621	-416.54	542.18	225.05	-602.36	487.27	91.212	-613.99	377.38	105.48	-654.53	428.55	100.9	-563.73	434.71	92.205	-801.38	279.98	148.95	-753.43	258.82	236.17	-858.27	306.76	215.15	-861.58	280.28	248.56	-880.44	285.9	189.64	-767.91	127.13	109.71	-714.45	104.85	218.83	-678.63	70.653	152.86	-680.76	1597	342.31	-768.75	1286.8	348.7
139	0.575	-462.65	1288.2	287.23	-564.27	1525.8	487.43	-619.6	1560.2	163.29	-570.83	1859.1	336.65	-494.82	1037.3	441.39	-516.68	1038.5	176.58	-742.29	1064.5	371.33	-753.04	1060.4	269.33	-563.29	981.05	528.03	-622.96	978.78	107.9	-579.49	1129.3	516.91	-638.58	1116.9	116.69	-759.45	1025.8	319.83	-530.15	670.8	491.06	-452.3	612.75	454.42	-515.73	586.03	464.57	-463.79	699.68	481.03	-486.92	527.22	454.96	-491.81	536.24	312.26	-550.82	370.03	471.56	-497.44	286.06	423.07	-559.61	300.64	458.42	-491.72	356.78	443.5	-576.1	101.79	413.22	-546.95	110.57	319.88	-648.62	73.361	353.27	-631.28	44.761	324.38	-636.3	43.244	388.81	-444.88	35.983	446.84	-413.5	41.468	322.04	-350.36	59.741	376.97	-567.66	696.55	111.91	-473.04	651.56	80.538	-529.5	613.57	118.68	-516.15	735.99	78.701	-475.88	552.1	84.797	-407.88	545.19	225.14	-592.76	487.81	91.398	-602.76	377.74	105.52	-644.01	428.31	100.94	-553.39	435.83	92.286	-788.63	277.27	148.83	-740.37	257.06	236.17	-846.19	302.89	214.88	-849.05	276.32	248.2	-867.9	281.67	189.32	-752.02	125.2	109.64	-698.38	104	218.86	-661.73	70.594	152.96	-675.54	1598.1	342.66	-763.58	1288	349.42
140	0.57917	-457.88	1289.3	287.37	-558.83	1527.1	487.55	-614.79	1561.3	163.57	-565.42	1860	336.61	-490	1038.2	441.61	-511.79	1039.9	176.94	-737.41	1065.5	371.25	-748.04	1061.6	269.23	-558.69	981.67	528.04	-617.59	980.37	107.76	-574.47	1130.4	516.93	-633.51	1118.5	117	-754.44	1026.9	319.63	-528.01	671.15	491.1	-450.6	612.45	454.55	-514.28	586.26	464.67	-461.42	699.51	481.06	-485.96	527.2	455.07	-490.57	536.23	312.34	-550.38	370.17	471.63	-497.15	286.08	423.2	-559.33	300.8	458.47	-491.29	356.78	443.64	-576.06	101.86	413.22	-546.92	110.66	319.91	-648.59	73.444	353.27	-631.27	44.834	324.36	-636.28	43.32	388.8	-444.87	35.966	446.87	-413.49	41.469	322.08	-350.35	59.694	377.02	-560.04	698.17	111.22	-464.81	654.03	80.612	-521.37	615.5	118.12	-508.76	738.09	78.455	-467.08	554.28	84.995	-399.38	548.14	225.24	-583.22	488.2	91.556	-591.5	377.99	105.55	-633.48	427.9	100.95	-543.08	436.85	92.372	-775.75	274.33	148.67	-727.23	255.15	236.15	-834.01	298.78	214.56	-836.4	272.13	247.81	-855.22	277.18	188.95	-735.93	123.12	109.6	-682.13	103.08	218.94	-644.64	70.466	153.13	-670.34	1599.1	343	-758.42	1289.1	350.12
141	0.58333	-453.12	1290.3	287.52	-553.41	1528.3	487.67	-609.96	1562.2	163.83	-560.03	1860.9	336.53	-485.21	1039	441.84	-506.86	1041.4	177.31	-732.54	1066.5	371.12	-743.04	1062.7	269.08	-554.13	982.25	528.04	-612.19	981.91	107.61	-569.51	1131.4	516.96	-628.39	1120	117.27	-749.44	1028	319.38	-525.9	671.51	491.12	-448.93	612.14	454.67	-512.85	586.49	464.76	-459.07	699.34	481.08	-485.01	527.19	455.18	-489.36	536.21	312.42	-549.94	370.3	471.7	-496.86	286.1	423.32	-559.06	300.97	458.51	-490.86	356.79	443.76	-576.01	101.93	413.21	-546.88	110.74	319.93	-648.56	73.527	353.28	-631.26	44.904	324.35	-636.26	43.397	388.8	-444.86	35.952	446.9	-413.49	41.471	322.12	-350.34	59.647	377.06	-552.52	699.76	110.52	-456.67	656.45	80.705	-513.35	617.4	117.55	-501.42	740.15	78.215	-458.38	556.4	85.213	-391.04	551.03	225.35	-573.74	488.44	91.687	-580.23	378.11	105.59	-622.94	427.34	100.92	-532.79	437.76	92.465	-762.76	271.17	148.49	-713.99	253.07	236.09	-821.71	294.42	214.19	-823.62	267.72	247.38	-842.41	272.43	188.53	-719.64	120.91	109.57	-665.7	102.08	219.05	-627.37	70.283	153.34	-665.14	1600.1	343.32	-753.26	1290.2	350.8
142	0.5875	-448.36	1291.3	287.68	-548.01	1529.5	487.79	-605.12	1563.2	164.09	-554.65	1861.8	336.43	-480.44	1039.9	442.09	-501.91	1042.7	177.69	-727.68	1067.4	370.93	-738.05	1063.8	268.88	-549.62	982.8	528.03	-606.79	983.41	107.44	-564.61	1132.3	516.99	-623.22	1121.5	117.51	-744.43	1029	319.08	-523.8	671.85	491.13	-447.27	611.84	454.78	-511.43	586.72	464.85	-456.73	699.17	481.09	-484.08	527.18	455.28	-488.18	536.2	312.48	-549.51	370.44	471.76	-496.58	286.11	423.43	-558.79	301.13	458.54	-490.44	356.79	443.88	-575.97	102	413.2	-546.83	110.82	319.95	-648.52	73.609	353.27	-631.25	44.972	324.32	-636.23	43.476	388.79	-444.86	35.939	446.93	-413.48	41.471	322.16	-350.33	59.601	377.1	-545.1	701.32	109.81	-448.63	658.82	80.817	-505.44	619.25	116.99	-494.16	742.17	77.983	-449.78	558.45	85.452	-382.85	553.85	225.47	-564.31	488.53	91.792	-568.93	378.11	105.63	-612.4	426.63	100.86	-522.55	438.57	92.563	-749.63	267.82	148.27	-700.66	250.84	236.02	-809.28	289.84	213.79	-810.68	263.1	246.93	-829.44	267.45	188.08	-703.16	118.58	109.54	-649.09	101.03	219.18	-609.91	70.058	153.58	-659.94	1601	343.63	-748.09	1291.3	351.45
143	0.59167	-443.59	1292.2	287.84	-542.63	1530.6	487.9	-600.27	1564	164.33	-549.29	1862.6	336.29	-475.7	1040.7	442.36	-496.94	1044	178.08	-722.84	1068.3	370.7	-733.07	1064.9	268.63	-545.15	983.3	528.01	-601.38	984.84	107.26	-559.77	1133.2	517.03	-618.03	1122.9	117.72	-739.44	1030	318.74	-521.72	672.19	491.13	-445.62	611.53	454.88	-510.02	586.95	464.93	-454.42	698.98	481.09	-483.15	527.16	455.37	-487.02	536.17	312.53	-549.08	370.57	471.81	-496.3	286.13	423.53	-558.52	301.29	458.57	-490.01	356.8	443.99	-575.93	102.07	413.19	-546.77	110.9	319.96	-648.48	73.691	353.27	-631.26	45.038	324.3	-636.21	43.556	388.78	-444.85	35.928	446.96	-413.47	41.47	322.19	-350.33	59.554	377.14	-537.77	702.86	109.09	-440.69	661.13	80.946	-497.65	621.07	116.45	-486.97	744.14	77.762	-441.29	560.45	85.709	-374.83	556.59	225.6	-554.94	488.47	91.872	-557.62	378	105.67	-601.84	425.77	100.77	-512.34	439.26	92.668	-736.39	264.28	148.04	-687.23	248.46	235.91	-796.73	285.04	213.36	-797.6	258.27	246.46	-816.32	262.24	187.59	-686.49	116.15	109.51	-632.31	99.935	219.31	-592.3	69.806	153.83	-654.75	1601.9	343.92	-742.93	1292.3	352.07
144	0.59583	-438.82	1293.1	288.01	-537.26	1531.7	488.01	-595.41	1564.8	164.56	-543.95	1863.4	336.13	-470.97	1041.4	442.64	-491.94	1045.3	178.46	-718	1069.1	370.42	-728.11	1065.8	268.34	-540.71	983.76	527.98	-595.96	986.22	107.08	-554.99	1134	517.07	-612.81	1124.2	117.88	-734.45	1030.9	318.36	-519.64	672.53	491.11	-443.99	611.23	454.96	-508.61	587.18	465.02	-452.11	698.79	481.09	-482.23	527.14	455.45	-485.87	536.14	312.58	-548.65	370.71	471.86	-496.01	286.14	423.63	-558.26	301.45	458.58	-489.59	356.8	444.09	-575.88	102.14	413.16	-546.7	110.98	319.97	-648.44	73.773	353.25	-631.26	45.101	324.26	-636.19	43.638	388.76	-444.84	35.919	446.98	-413.46	41.468	322.23	-350.32	59.505	377.17	-530.54	704.36	108.37	-432.84	663.37	81.093	-489.95	622.84	115.92	-479.83	746.05	77.554	-432.91	562.38	85.982	-366.96	559.25	225.74	-545.62	488.25	91.93	-546.3	377.77	105.72	-591.28	424.76	100.66	-502.17	439.85	92.78	-723.01	260.56	147.79	-673.69	245.93	235.79	-784.04	280.03	212.91	-784.34	253.24	245.98	-803.04	256.83	187.09	-669.65	113.65	109.47	-615.36	98.794	219.43	-574.53	69.541	154.06	-649.56	1602.7	344.19	-737.78	1293.3	352.67
145	0.6	-434.03	1294	288.18	-531.9	1532.8	488.11	-590.53	1565.6	164.78	-538.63	1864.1	335.95	-466.27	1042.1	442.94	-486.93	1046.4	178.84	-713.18	1069.9	370.1	-723.15	1066.8	268.01	-536.32	984.18	527.94	-590.55	987.54	106.88	-550.27	1134.8	517.13	-607.57	1125.4	118.01	-729.48	1031.7	317.95	-517.58	672.85	491.09	-442.35	610.93	455.04	-507.2	587.41	465.09	-449.82	698.59	481.07	-481.31	527.12	455.52	-484.73	536.1	312.61	-548.21	370.84	471.89	-495.73	286.15	423.71	-557.99	301.61	458.59	-489.17	356.79	444.18	-575.84	102.21	413.14	-546.62	111.05	319.97	-648.39	73.856	353.24	-631.28	45.161	324.22	-636.17	43.722	388.74	-444.83	35.911	447	-413.45	41.465	322.26	-350.31	59.455	377.21	-523.39	705.83	107.67	-425.1	665.55	81.256	-482.36	624.55	115.42	-472.77	747.91	77.361	-424.65	564.24	86.272	-359.26	561.82	225.89	-536.36	487.89	91.966	-534.97	377.44	105.77	-580.72	423.6	100.52	-492.04	440.33	92.898	-709.5	256.69	147.52	-660.05	243.26	235.64	-771.21	274.83	212.46	-770.92	248.01	245.49	-789.58	251.21	186.58	-652.63	111.09	109.41	-598.25	97.619	219.54	-556.61	69.274	154.28	-644.37	1603.5	344.46	-732.63	1294.2	353.23
146	0.60417	-429.22	1294.8	288.34	-526.56	1533.8	488.21	-585.63	1566.3	164.99	-533.32	1864.8	335.75	-461.59	1042.8	443.24	-481.9	1047.5	179.22	-708.36	1070.6	369.75	-718.21	1067.6	267.65	-531.96	984.56	527.9	-585.15	988.78	106.68	-545.6	1135.5	517.19	-602.32	1126.5	118.11	-724.52	1032.5	317.52	-515.52	673.16	491.04	-440.73	610.62	455.11	-505.79	587.63	465.16	-447.54	698.38	481.05	-480.38	527.08	455.58	-483.6	536.05	312.63	-547.78	370.97	471.92	-495.44	286.16	423.79	-557.72	301.76	458.58	-488.74	356.79	444.27	-575.8	102.28	413.1	-546.53	111.12	319.97	-648.33	73.938	353.21	-631.3	45.22	324.18	-636.15	43.808	388.71	-444.82	35.905	447.02	-413.43	41.46	322.29	-350.31	59.401	377.25	-516.33	707.24	106.99	-417.46	667.65	81.437	-474.86	626.21	114.96	-465.76	749.69	77.186	-416.49	566.02	86.575	-351.71	564.3	226.06	-527.16	487.37	91.983	-523.63	376.99	105.82	-570.16	422.29	100.37	-481.95	440.7	93.022	-695.86	252.66	147.24	-646.3	240.46	235.47	-758.23	269.44	212	-757.31	242.6	245	-775.95	245.41	186.06	-635.44	108.48	109.31	-580.98	96.418	219.61	-538.56	69.017	154.45	-639.19	1604.3	344.7	-727.48	1295	353.77
